<?xml version="1.0" encoding="UTF-8"?>
<svg version="1.1" xmlns="http://www.w3.org/2000/svg" width="436" height="199">
<path d="M0 0 C1.12728516 -0.0309375 1.12728516 -0.0309375 2.27734375 -0.0625 C7.16473722 -0.09661793 10.60254512 0.39712641 14.75 3.25 C22.70833189 12.97837467 22.01984186 26.99732173 22.0625 38.9375 C22.06797852 40.05278076 22.07345703 41.16806152 22.07910156 42.31713867 C21.88744375 64.78240811 21.88744375 64.78240811 15.75 73.25 C13 75.75 13 75.75 10.75 77.25 C14.05 77.25 17.35 77.25 20.75 77.25 C21.78978441 81.40913764 21.6010302 82.8702725 20.5 86.875 C20.12101562 88.31746094 20.12101562 88.31746094 19.734375 89.7890625 C18.75 92.25 18.75 92.25 15.75 94.25 C12.859375 94.48046875 12.859375 94.48046875 9.5 94.4375 C8.34113281 94.42332031 7.18226563 94.40914063 5.98828125 94.39453125 C3.47725928 94.2824591 1.15153586 94.0705664 -1.3125 93.625 C-4.58558268 93.20715966 -5.47314771 93.67645037 -8.25 95.25 C-10.875 95.5625 -10.875 95.5625 -13.25 95.25 C-13.91 94.26 -14.57 93.27 -15.25 92.25 C-14.40528873 89.71291265 -13.50737906 87.4645892 -12.375 85.0625 C-12.07980469 84.40830078 -11.78460938 83.75410156 -11.48046875 83.08007812 C-10.74929565 81.46442144 -10.00122431 79.85643165 -9.25 78.25 C-10.19359375 77.66347656 -11.1371875 77.07695312 -12.109375 76.47265625 C-18.32340548 72.07491577 -19.60330043 65.7689108 -20.84863281 58.54321289 C-21.54549936 52.82543133 -21.5456308 47.10379216 -21.51074219 41.35253906 C-21.50001513 39.25296157 -21.51070107 37.15423931 -21.5234375 35.0546875 C-21.54493962 14.19240943 -21.54493962 14.19240943 -16.25 6.25 C-10.97333458 1.05821391 -7.24903658 0.04873302 0 0 Z M-1.25 14.25 C-4.22082385 17.22082385 -3.37060665 24.26427026 -3.38894653 28.22547913 C-3.3869223 28.93611008 -3.38489807 29.64674103 -3.3828125 30.37890625 C-3.38376923 31.13163315 -3.38472595 31.88436005 -3.38571167 32.65989685 C-3.386388 34.24063196 -3.38457215 35.82136994 -3.38037109 37.40209961 C-3.37500747 39.80914589 -3.38033858 42.21600625 -3.38671875 44.62304688 C-3.38605802 46.16666707 -3.38477696 47.71028716 -3.3828125 49.25390625 C-3.38483673 49.96656143 -3.38686096 50.67921661 -3.38894653 51.41346741 C-3.37011527 55.46197944 -3.03121759 59.27758223 -2.25 63.25 C0.225 62.755 0.225 62.755 2.75 62.25 C3.64540685 57.64747479 3.91040376 53.1824283 3.91796875 48.5078125 C3.92129715 47.78061005 3.92462555 47.05340759 3.92805481 46.3041687 C3.93309345 44.77293526 3.93546409 43.24169094 3.93530273 41.71044922 C3.93748701 39.38881023 3.95566895 37.06764876 3.97460938 34.74609375 C3.97754454 33.2500016 3.97952851 31.75390723 3.98046875 30.2578125 C3.98765427 29.57421661 3.99483978 28.89062073 4.00224304 28.18630981 C3.97910908 23.21807446 3.08635581 18.99494034 1.75 14.25 C0.76 14.25 -0.23 14.25 -1.25 14.25 Z " fill="#FCFCFC" transform="translate(382.25,56.75)"/>
<path d="M0 0 C6.27 0 12.54 0 19 0 C20.1746924 3.52407721 21.30709385 6.95734081 22.2890625 10.5234375 C22.48709473 11.23935059 22.68512695 11.95526367 22.88916016 12.69287109 C23.1319873 13.57797363 23.37481445 14.46307617 23.625 15.375 C24.40875 18.22125 25.1925 21.0675 26 24 C26.33 16.08 26.66 8.16 27 0 C31.62 0 36.24 0 41 0 C41 24.75 41 49.5 41 75 C35.06 75 29.12 75 23 75 C20.22679095 67.09635422 18.1165207 59.10116544 16 51 C15.67 58.92 15.34 66.84 15 75 C10.05 75 5.1 75 0 75 C0 50.25 0 25.5 0 0 Z " fill="#FCFCFC" transform="translate(167,58)"/>
<path d="M0 0 C3.97915159 -0.02886984 7.95827653 -0.04675406 11.9375 -0.0625 C13.07380859 -0.07087891 14.21011719 -0.07925781 15.38085938 -0.08789062 C16.46044922 -0.09111328 17.54003906 -0.09433594 18.65234375 -0.09765625 C20.15269165 -0.10551147 20.15269165 -0.10551147 21.68334961 -0.11352539 C24 0 24 0 25 1 C25.36086302 3.07912555 25.66200839 5.16863905 25.93969727 7.26049805 C26.07158951 8.24112465 26.07158951 8.24112465 26.20614624 9.24156189 C26.49718602 11.41440031 26.78196046 13.588008 27.06640625 15.76171875 C27.26649907 17.27052708 27.46685556 18.77930046 27.66746521 20.28804016 C28.08795018 23.45786467 28.50537315 26.62807364 28.9206543 29.79858398 C29.45198665 33.85338744 29.99056771 37.90718739 30.53144932 41.96072674 C30.94695713 45.08053825 31.3586933 48.20083867 31.76930046 51.3212986 C31.96632377 52.81530441 32.16447883 54.30916144 32.36380196 55.80286217 C32.64290426 57.89893861 32.91694316 59.99561859 33.18969727 62.0925293 C33.34656509 63.28420212 33.50343292 64.47587494 33.66505432 65.70365906 C34 69 34 69 34 75 C28.06 75 22.12 75 16 75 C15.34 69.72 14.68 64.44 14 59 C12.68 58.67 11.36 58.34 10 58 C9.90912109 59.33804688 9.90912109 59.33804688 9.81640625 60.703125 C9.73261719 61.87359375 9.64882812 63.0440625 9.5625 64.25 C9.48128906 65.41015625 9.40007812 66.5703125 9.31640625 67.765625 C9 71 9 71 8 75 C2.39 75 -3.22 75 -9 75 C-10.57419295 71.85161411 -9.4424931 68.73665173 -8.875 65.375 C-7.12827176 54.42679467 -5.74647839 43.43752016 -4.375 32.4375 C-4.21013092 31.12576813 -4.21013092 31.12576813 -4.04193115 29.78753662 C-2.41137883 16.87671221 -2.41137883 16.87671221 -1.23291016 3.91821289 C-1 2 -1 2 0 0 Z M12 24 C13 28 13 28 13 28 Z M12 32 C10.18884044 33.81115956 10.61800552 36.61278227 10.4375 39.0625 C10.35371094 40.16722656 10.26992187 41.27195312 10.18359375 42.41015625 C10.12300781 43.26480469 10.06242187 44.11945313 10 45 C11.32 44.67 12.64 44.34 14 44 C13.67 40.04 13.34 36.08 13 32 C12.67 32 12.34 32 12 32 Z " fill="#FDFDFD" transform="translate(240,58)"/>
<path d="M0 0 C29 0 29 0 37 4 C43.34411689 13.10950117 43.26359784 24.47415995 41.46875 35.1640625 C39.75533219 41.3286418 37.58521349 45.46997569 31.9375 48.8125 C28 50 28 50 17 50 C17 58.25 17 66.5 17 75 C11.39 75 5.78 75 0 75 C0 50.25 0 25.5 0 0 Z M17 14 C17 21.59 17 29.18 17 37 C21.20180184 36.4260261 21.20180184 36.4260261 23 33 C24.49611748 27.7635888 24.54835983 22.34299199 23.3125 17.0625 C22.879375 16.381875 22.44625 15.70125 22 15 C20.35 14.67 18.7 14.34 17 14 Z " fill="#FCFCFC" transform="translate(297,58)"/>
<path d="M0 0 C3.51653861 0.31968533 5.53431968 0.62242136 8.3125 2.875 C11.57694797 6.98578633 11.0876396 11.13830656 11 16.125 C10.95423845 18.75628931 10.95288277 21.36732488 11 24 C12.06645115 25.29633621 12.06645115 25.29633621 14.5625 25.0625 C15.7690625 25.0315625 15.7690625 25.0315625 17 25 C17.60084252 21.84557676 18.01241647 19.15210181 17.75 15.9375 C18.09583067 11.87398965 20.06499496 10.49441537 23 8 C23.71285156 7.29875 24.42570312 6.5975 25.16015625 5.875 C26.31837891 4.76125 26.31837891 4.76125 27.5 3.625 C28.2321875 2.91601562 28.964375 2.20703125 29.71875 1.4765625 C32 0 32 0 34.42578125 -0.0390625 C37.88585491 1.35756814 40.00289486 3.42160707 42.6875 6 C46.06219385 9.39569785 46.06219385 9.39569785 50 12 C49.98839844 12.85464844 49.97679687 13.70929687 49.96484375 14.58984375 C49.95582031 15.69457031 49.94679687 16.79929687 49.9375 17.9375 C49.92589844 19.03964844 49.91429687 20.14179687 49.90234375 21.27734375 C49.68737429 23.91447634 49.68737429 23.91447634 51 25 C53.5 25.16666667 53.5 25.16666667 56 25 C56.495 24.505 56.495 24.505 57 24 C56.85372146 22.49542071 56.65677486 20.99568539 56.4375 19.5 C55.76047641 13.28207278 56.08922307 7.72968133 59.75 2.5 C62 1 62 1 68 0 C68 12.87 68 25.74 68 39 C65.22128529 40.38935736 62.94702222 40.13490628 59.83789062 40.14526367 C58.54314819 40.15164352 57.24840576 40.15802338 55.91442871 40.16459656 C54.49503619 40.166125 53.07564316 40.16723908 51.65625 40.16796875 C50.20658332 40.17118059 48.75691697 40.1745446 47.30725098 40.17805481 C44.2674891 40.18404668 41.22775565 40.1858946 38.18798828 40.18530273 C34.28707773 40.185201 30.38634873 40.19886475 26.48548126 40.21607494 C23.49154823 40.22717519 20.4976594 40.22922257 17.50370789 40.22869301 C16.06515374 40.22987567 14.62659854 40.2343134 13.18806458 40.24202538 C11.17943654 40.25178688 9.17075546 40.24769296 7.16210938 40.24291992 C6.01786499 40.24434494 4.87362061 40.24576996 3.69470215 40.24723816 C1 40 1 40 -1 38 C-1.18750246 35.298457 -1.25564881 32.70130708 -1.23046875 30 C-1.23001053 29.20851563 -1.22955231 28.41703125 -1.2290802 27.6015625 C-1.22605731 25.9270681 -1.2181699 24.25257652 -1.20581055 22.578125 C-1.18757326 20.01031569 -1.18530072 17.44286726 -1.18554688 14.875 C-1.18063094 13.24999687 -1.17480229 11.6249962 -1.16796875 10 C-1.16685593 9.22914062 -1.1657431 8.45828125 -1.16459656 7.6640625 C-1.11606989 2.23213978 -1.11606989 2.23213978 0 0 Z M27.5 17.5625 C25.41607182 20.94888329 25.44197903 23.09385318 26 27 C28.05497771 30.00342896 29.47633714 30.83287356 32.9375 31.9375 C36.59872681 32.01221891 38.1304674 31.21363944 41 29 C42.54586876 25.90826248 42.29359521 23.40570448 42 20 C40.6469872 17.39685006 40.6469872 17.39685006 38 16 C33.95439643 15.19585339 31.02126244 15.36171098 27.5 17.5625 Z " fill="#FCFCFC" transform="translate(33,28)"/>
<path d="M0 0 C1.34888732 0.00015905 2.69778075 0.00584927 4.04663086 0.01586914 C5.10991859 0.01799156 5.10991859 0.01799156 6.19468689 0.02015686 C8.46699173 0.02577096 10.73919936 0.03832576 13.01147461 0.05102539 C14.54858257 0.05603858 16.08569206 0.0606018 17.62280273 0.06469727 C21.39823103 0.07574497 25.17358632 0.09301898 28.94897461 0.11352539 C28.94897461 1.76352539 28.94897461 3.41352539 28.94897461 5.11352539 C27.62833008 5.35135742 27.62833008 5.35135742 26.28100586 5.59399414 C17.34137926 7.22638767 17.34137926 7.22638767 10.94897461 13.11352539 C9.52510502 15.96126458 9.79802103 18.39550106 9.77197266 21.5793457 C9.76211586 22.5748217 9.76211586 22.5748217 9.75205994 23.59040833 C9.73232029 25.79082348 9.72066161 27.99117029 9.71069336 30.19165039 C9.70661783 30.94357414 9.7025423 31.69549789 9.69834328 32.47020721 C9.67747751 36.45173366 9.66317926 40.43322561 9.65380859 44.41479492 C9.64275614 48.52174607 9.6083718 52.62815361 9.56863689 56.73491287 C9.54245071 59.89714545 9.53411491 63.05924905 9.53052711 66.22158051 C9.52566456 67.73500989 9.51405988 69.24843364 9.49548912 70.7617569 C9.4710582 72.88498031 9.47206906 75.0068051 9.47900391 77.13012695 C9.47313766 78.33654846 9.46727142 79.54296997 9.46122742 80.78594971 C10.04927246 84.79779109 11.44189879 86.96494472 13.94897461 90.11352539 C18.37100028 92.71471696 23.94391226 93.19998003 28.94897461 94.11352539 C28.94897461 95.76352539 28.94897461 97.41352539 28.94897461 99.11352539 C24.40999756 99.13817931 19.87105918 99.15636328 15.33203125 99.16845703 C13.78677695 99.17349679 12.24152745 99.18032859 10.69628906 99.18896484 C8.47972432 99.20104615 6.26322243 99.20675712 4.04663086 99.21118164 C3.00443138 99.21892357 3.00443138 99.21892357 1.94117737 99.2268219 C0.27668131 99.22701816 -1.38768038 99.17541668 -3.05102539 99.11352539 C-4.95943983 97.20511095 -4.177779 94.38407951 -4.18655396 91.84446716 C-4.18452972 90.94261185 -4.18250549 90.04075653 -4.18041992 89.11157227 C-4.18217224 88.16693619 -4.18392456 87.22230011 -4.18572998 86.2490387 C-4.19015019 83.11009919 -4.18720991 79.97121552 -4.18383789 76.83227539 C-4.18451088 74.66133615 -4.18548086 72.49039699 -4.18673706 70.31945801 C-4.18821426 65.76301356 -4.18605876 61.20658867 -4.18139648 56.65014648 C-4.17569919 50.79525953 -4.17897807 44.94041841 -4.18496895 39.08553314 C-4.18857396 34.60072481 -4.18743625 30.11592743 -4.18484116 25.63111877 C-4.18417172 23.47164403 -4.18500089 21.31216831 -4.18732071 19.1526947 C-4.18984625 16.14026231 -4.18600804 13.12790526 -4.18041992 10.11547852 C-4.18244415 9.2136232 -4.18446838 8.31176788 -4.18655396 7.38258362 C-4.16158044 0.15484796 -4.16158044 0.15484796 0 0 Z " fill="#FAFAFA" transform="translate(72.051025390625,70.886474609375)"/>
<path d="M0 0 C10.56 0 21.12 0 32 0 C32 32.67 32 65.34 32 99 C21.44 99 10.88 99 0 99 C-0.33 97.68 -0.66 96.36 -1 95 C1.81068981 93.46399945 4.29318177 92.63468963 7.4375 92.0625 C11.1388637 91.27109 14.0132265 90.44372377 17 88 C18.99760291 84.06217876 19.25727061 80.75881328 19.2746582 76.37719727 C19.27976913 75.73261566 19.28488007 75.08803406 19.29014587 74.42391968 C19.30398421 72.30465265 19.30308957 70.18571294 19.30078125 68.06640625 C19.30467128 66.58576844 19.30900658 65.10513173 19.31376648 63.62449646 C19.32121623 60.52526223 19.32094643 57.42614194 19.31567383 54.3269043 C19.30987996 50.36471229 19.32681382 46.40298787 19.3500185 42.44087315 C19.36478423 39.38414302 19.36562372 36.32752478 19.36250877 33.2707653 C19.36302053 31.8103944 19.36823093 30.350017 19.37832069 28.88968086 C19.39072397 26.84354803 19.38387148 24.79831678 19.37231445 22.75219727 C19.37294388 21.59035416 19.3735733 20.42851105 19.3742218 19.23146057 C18.94880615 15.55793357 17.91139061 13.14960053 16 10 C13.77218991 8.48252287 13.77218991 8.48252287 11.1875 7.6875 C9.86685547 7.22150391 9.86685547 7.22150391 8.51953125 6.74609375 C5.69518932 5.90973823 2.93102393 5.30852884 0 5 C0 3.35 0 1.7 0 0 Z " fill="#FDFDFD" transform="translate(33,71)"/>
<path d="M0 0 C5.61 0 11.22 0 17 0 C18 1 18 1 18.12025452 3.92958069 C18.1169236 5.89815285 18.1169236 5.89815285 18.11352539 7.90649414 C18.11367142 8.62840439 18.11381744 9.35031464 18.1139679 10.09410095 C18.11326869 12.49114947 18.10547595 14.88812123 18.09765625 17.28515625 C18.0957921 18.94282489 18.09436818 20.60049407 18.09336853 22.25816345 C18.08954312 26.62954214 18.07971265 31.00088781 18.06866455 35.37225342 C18.05845092 39.82954461 18.05387101 44.28684111 18.04882812 48.74414062 C18.0380904 57.49611062 18.02049342 66.2480474 18 75 C12.06 75 6.12 75 0 75 C0 50.25 0 25.5 0 0 Z " fill="#FEFEFE" transform="translate(124,58)"/>
<path d="M0 0 C1.26328125 0.01804687 2.5265625 0.03609375 3.828125 0.0546875 C4.79234375 0.07789062 5.7565625 0.10109375 6.75 0.125 C6.77319319 11.60825961 6.79095067 23.09151363 6.80181217 34.57479191 C6.80702573 39.9072102 6.81409564 45.23961243 6.82543945 50.57202148 C6.8363226 55.72023615 6.84228835 60.8684354 6.84487724 66.01666069 C6.84672171 67.97859375 6.85032346 69.94052599 6.85573006 71.90245247 C6.86301251 74.65512018 6.8639879 77.40772456 6.86352539 80.16040039 C6.86712067 80.96744919 6.87071594 81.77449799 6.87442017 82.60600281 C6.86606397 87.21660495 6.51269766 91.57622611 5.75 96.125 C5.42 96.125 5.09 96.125 4.75 96.125 C4.75 65.105 4.75 34.085 4.75 2.125 C-0.53 2.125 -5.81 2.125 -11.25 2.125 C-6.91061709 -0.04469145 -4.76609592 -0.08826104 0 0 Z " fill="#EBECEC" transform="translate(58.25,70.875)"/>
<path d="M0 0 C1.32 0.66 2.64 1.32 4 2 C2.35 2.33 0.7 2.66 -1 3 C-1 3.66 -1 4.32 -1 5 C-1.45375 5.4125 -1.9075 5.825 -2.375 6.25 C-7.7634614 12.05295844 -7.15678135 21.97165742 -7.16796875 29.4609375 C-7.17129715 30.25094147 -7.17462555 31.04094543 -7.17805481 31.85488892 C-7.18309033 33.5171857 -7.18546419 35.17949247 -7.18530273 36.84179688 C-7.18748773 39.3608494 -7.20567526 41.87946229 -7.22460938 44.3984375 C-7.22754447 46.02343602 -7.22952849 47.6484366 -7.23046875 49.2734375 C-7.23765427 50.01435638 -7.24483978 50.75527527 -7.25224304 51.51864624 C-7.22275581 58.39530108 -6.27501131 64.88623744 -3 71 C-4.485 71.495 -4.485 71.495 -6 72 C-6.65844127 70.50549145 -7.301021 69.00399308 -7.9375 67.5 C-8.29714844 66.6646875 -8.65679687 65.829375 -9.02734375 64.96875 C-11.63149541 57.02033529 -11.18625114 48.60372841 -11.18530273 40.32885742 C-11.18748434 38.20275694 -11.20567764 36.07718068 -11.22460938 33.95117188 C-11.31123291 12.96684937 -11.31123291 12.96684937 -6 5 C-4.0857076 3.15914593 -2.12676221 1.60688701 0 0 Z " fill="#E2E2E2" transform="translate(372,58)"/>
<path d="M0 0 C0.02314078 8.96193704 0.04092397 17.92386384 0.05181217 26.8858242 C0.05703719 31.04694039 0.06412795 35.20803618 0.07543945 39.36914062 C0.08628184 43.38265815 0.09227972 47.39615601 0.09487724 51.40968704 C0.09672905 52.94313491 0.100345 54.47658168 0.10573006 56.01002121 C0.1129584 58.15302632 0.11399018 60.29594956 0.11352539 62.43896484 C0.115746 63.66030121 0.11796661 64.88163757 0.12025452 66.13998413 C0 69 0 69 -1 71 C-1.66 71 -2.32 71 -3 71 C-3 47.9 -3 24.8 -3 1 C-1 0 -1 0 0 0 Z " fill="#ECECEC" transform="translate(127,61)"/>
<path d="M0 0 C0.66 0 1.32 0 2 0 C2 22.44 2 44.88 2 68 C1.01 68 0.02 68 -1 68 C-1.02312611 59.28155997 -1.04091646 50.56313044 -1.05181217 41.84466648 C-1.05704041 37.79674258 -1.06413699 33.74883959 -1.07543945 29.70092773 C-1.08627043 25.79764029 -1.09227728 21.89437301 -1.09487724 17.9910717 C-1.09673111 16.49866353 -1.100351 15.00625652 -1.10573006 13.51385689 C-1.11294331 11.43051861 -1.11399083 9.34726469 -1.11352539 7.26391602 C-1.115746 6.07588882 -1.11796661 4.88786163 -1.12025452 3.66383362 C-1 1 -1 1 0 0 Z " fill="#F8F8F9" transform="translate(140,62)"/>
<path d="M0 0 C0.99 0 1.98 0 3 0 C3 21.78 3 43.56 3 66 C1.515 66.495 1.515 66.495 0 67 C0 44.89 0 22.78 0 0 Z " fill="#E5E5E5" transform="translate(167,62)"/>
<path d="M0 0 C0.99 0 1.98 0 3 0 C4.34998573 9.39782353 5.69479745 18.79636308 7.03071594 28.19619751 C7.68067614 32.76717059 8.33779438 37.33703122 9 41.90625 C9.27122179 43.81244477 9.54209053 45.71868983 9.8125 47.625 C9.99776245 48.88014404 9.99776245 48.88014404 10.18676758 50.16064453 C10.93218422 55.48848675 11.10202883 60.61932186 11 66 C10.01 66.495 10.01 66.495 9 67 C6.90644514 53.78805372 4.82220399 40.59567647 3.39453125 27.29296875 C3.06493147 24.14645831 3.06493147 24.14645831 2.515625 21.6640625 C1.71686025 17.5371113 1.35831316 13.3675774 0.9375 9.1875 C0.84662109 8.30384766 0.75574219 7.42019531 0.66210938 6.50976562 C0.43927398 4.34005254 0.21863702 2.17013949 0 0 Z " fill="#E3E3E3" transform="translate(262,61)"/>
<path d="M0 0 C0 12.87 0 25.74 0 39 C-2.70879335 40.35439668 -5.00933268 40.06501451 -8 40 C-8 39.01 -8 38.02 -8 37 C-6.35 37 -4.7 37 -3 37 C-3 26.11 -3 15.22 -3 4 C-5.31 5.98 -7.62 7.96 -10 10 C-10.33 9.01 -10.66 8.02 -11 7 C-7.7077984 2.42749778 -5.82277855 0 0 0 Z " fill="#F6F6F7" transform="translate(101,28)"/>
<path d="M0 0 C0.99 0.33 1.98 0.66 3 1 C2.86722656 1.90621094 2.73445312 2.81242187 2.59765625 3.74609375 C0.64167645 15.94441278 0.64167645 15.94441278 0.0625 28.25 C0.00128659 31.92280478 -0.5975484 33.70011388 -2 37 C-2.45478192 39.66372269 -2.72632173 42.30883034 -3 45 C-3.66 45 -4.32 45 -5 45 C-5.27318647 36.34909522 -4.49565475 28.21204329 -3.0625 19.6875 C-2.69907075 17.44143019 -2.33578532 15.19533711 -1.97265625 12.94921875 C-1.80266113 11.91716309 -1.63266602 10.88510742 -1.45751953 9.82177734 C-0.92750805 6.55290183 -0.44974381 3.28076278 0 0 Z " fill="#ECECEC" transform="translate(237,82)"/>
<path d="M0 0 C0 0.33 0 0.66 0 1 C2.31 1.33 4.62 1.66 7 2 C7 2.33 7 2.66 7 3 C-5.21 3 -17.42 3 -30 3 C-30 2.01 -30 1.02 -30 0 C-19.98026666 -1.50296 -10.06387496 -0.64602167 0 0 Z " fill="#F4F6FC" transform="translate(69,65)"/>
<path d="M0 0 C0.99 0.33 1.98 0.66 3 1 C3 2.65 3 4.3 3 6 C3.66 6 4.32 6 5 6 C5.33 8.64 5.66 11.28 6 14 C5.01 14.33 4.02 14.66 3 15 C3 18.3 3 21.6 3 25 C2.01 25.33 1.02 25.66 0 26 C0 17.42 0 8.84 0 0 Z M1 6 C1.33 6.66 1.66 7.32 2 8 C2.33 7.34 2.66 6.68 3 6 C2.34 6 1.68 6 1 6 Z " fill="#F0EFF2" transform="translate(179,90)"/>
<path d="M0 0 C0.66 0 1.32 0 2 0 C2 11.88 2 23.76 2 36 C1.01 36 0.02 36 -1 36 C-1.11317227 23.94976471 -1.03330247 12.01214121 0 0 Z " fill="#EFEFEF" transform="translate(377,74)"/>
<path d="M0 0 C1.32 0.66 2.64 1.32 4 2 C2.35 2.33 0.7 2.66 -1 3 C-1 3.66 -1 4.32 -1 5 C-1.45375 5.4125 -1.9075 5.825 -2.375 6.25 C-6.22023596 10.39102334 -6.48620245 16.47140104 -7.125 21.875 C-7.21136719 22.56335938 -7.29773438 23.25171875 -7.38671875 23.9609375 C-7.59659566 25.63995275 -7.79907087 27.31989048 -8 29 C-8.99 29 -9.98 29 -11 29 C-10.48995102 9.64364128 -10.48995102 9.64364128 -4.40234375 3.34765625 C-2.75 1.9375 -2.75 1.9375 0 0 Z " fill="#ECECEC" transform="translate(372,58)"/>
<path d="M0 0 C0.99 0 1.98 0 3 0 C3.5742149 3.89542197 4.14372513 7.79150056 4.70898438 11.68823242 C4.996238 13.66165521 5.28715735 15.63454328 5.578125 17.60742188 C5.75859375 18.85458984 5.9390625 20.10175781 6.125 21.38671875 C6.29257812 22.53358154 6.46015625 23.68044434 6.6328125 24.86206055 C6.9550671 27.61600897 7.07254211 30.23206495 7 33 C6.01 32.67 5.02 32.34 4 32 C2.20680316 21.3743549 1.0639634 10.71886534 0 0 Z " fill="#EEEEEE" transform="translate(262,61)"/>
<path d="M0 0 C0.33 0 0.66 0 1 0 C1.33 5.94 1.66 11.88 2 18 C2.33 18 2.66 18 3 18 C3 25.92 3 33.84 3 42 C2.01 42 1.02 42 0 42 C0 28.14 0 14.28 0 0 Z " fill="#EBEBED" transform="translate(139,88)"/>
<path d="M0 0 C2.9719385 1.12451727 5.33440687 2.22293791 8 4 C7.47766614 10.00683945 5.94594259 15.69730333 3 21 C2.01 21.33 1.02 21.66 0 22 C-0.33 21.34 -0.66 20.68 -1 20 C-0.09176973 17.56442428 0.86828071 15.23804483 1.9375 12.875 C2.22818359 12.21628906 2.51886719 11.55757812 2.81835938 10.87890625 C3.53860198 9.24950495 4.26841143 7.62433868 5 6 C3.02 4.68 1.04 3.36 -1 2 C-0.67 1.34 -0.34 0.68 0 0 Z " fill="#F3F3F3" transform="translate(368,129)"/>
<path d="M0 0 C0.66 0 1.32 0 2 0 C2.3317276 9.90268312 2.5498476 18.9003048 -2 28 C-2.66 27.67 -3.32 27.34 -4 27 C-3.79503906 26.22398438 -3.59007812 25.44796875 -3.37890625 24.6484375 C-1.31205068 16.36123671 -0.37053912 8.52239969 0 0 Z " fill="#D6D6D9" transform="translate(337,74)"/>
<path d="M0 0 C0.99 0.33 1.98 0.66 3 1 C2.86722656 1.9178125 2.73445312 2.835625 2.59765625 3.78125 C1.67657959 10.18172431 0.77045166 16.57956948 0 23 C-0.99 23.33 -1.98 23.66 -3 24 C-2.29563752 15.95543903 -1.18531495 7.98649105 0 0 Z " fill="#F2F2F2" transform="translate(237,82)"/>
<path d="M0 0 C1.84647218 3.10575205 2.18809488 4.99802318 1.6875 8.5625 C1.58824219 9.32691406 1.48898437 10.09132813 1.38671875 10.87890625 C1 13 1 13 0 16 C-0.99 16.33 -1.98 16.66 -3 17 C-4.29065057 13.1280483 -3.22324098 10.55767399 -2.0625 6.8125 C-1.76956055 5.83120117 -1.76956055 5.83120117 -1.47070312 4.83007812 C-0.98817437 3.21772593 -0.49509795 1.60853711 0 0 Z " fill="#F0F1F1" transform="translate(322,79)"/>
<path d="M0 0 C1.921875 0.7421875 1.921875 0.7421875 4 2 C5.11714584 4.62423881 5.45369812 7.17744031 6 10 C5.34 10 4.68 10 4 10 C4 14.62 4 19.24 4 24 C3.67 24 3.34 24 3 24 C2.92652344 22.65808594 2.92652344 22.65808594 2.8515625 21.2890625 C2.40311654 14.03660879 1.67886409 7.07404867 0 0 Z " fill="#EBEBEC" transform="translate(333,64)"/>
<path d="M0 0 C0.66 0 1.32 0 2 0 C2 6.6 2 13.2 2 20 C1.34 20 0.68 20 0 20 C0.020625 18.906875 0.04125 17.81375 0.0625 16.6875 C0.07872755 12.16001492 -0.37795901 7.71881239 -0.87890625 3.22265625 C-0.91886719 2.48917969 -0.95882813 1.75570312 -1 1 C-0.67 0.67 -0.34 0.34 0 0 Z " fill="#F3F3F3" transform="translate(312,72)"/>
<path d="M0 0 C1.26328125 0.01804687 2.5265625 0.03609375 3.828125 0.0546875 C4.79234375 0.07789062 5.7565625 0.10109375 6.75 0.125 C6.75 2.105 6.75 4.085 6.75 6.125 C6.09 6.125 5.43 6.125 4.75 6.125 C4.75 4.805 4.75 3.485 4.75 2.125 C-0.53 2.125 -5.81 2.125 -11.25 2.125 C-6.91061709 -0.04469145 -4.76609592 -0.08826104 0 0 Z " fill="#F2F3F6" transform="translate(58.25,70.875)"/>
<path d="M0 0 C6.27 0 12.54 0 19 0 C19 0.33 19 0.66 19 1 C21.31 1.33 23.62 1.66 26 2 C26 2.33 26 2.66 26 3 C21.71 3 17.42 3 13 3 C13 2.34 13 1.68 13 1 C12.39671875 1.09539062 11.7934375 1.19078125 11.171875 1.2890625 C9.97304688 1.45535156 9.97304688 1.45535156 8.75 1.625 C7.56664062 1.79902344 7.56664062 1.79902344 6.359375 1.9765625 C4 2 4 2 0 0 Z " fill="#EFEFF4" transform="translate(50,65)"/>
<path d="M0 0 C1.48521677 0.75911079 2.96303425 1.53271234 4.4375 2.3125 C5.67306641 2.95638672 5.67306641 2.95638672 6.93359375 3.61328125 C9 5 9 5 10 8 C5.17965738 7.58682778 3.09007389 5.61980085 0 2 C0 1.34 0 0.68 0 0 Z " fill="#F5F5F5" transform="translate(80,157)"/>
<path d="M0 0 C1.32 0.66 2.64 1.32 4 2 C2.35 2.33 0.7 2.66 -1 3 C-1 3.66 -1 4.32 -1 5 C-2.98 5.99 -4.96 6.98 -7 8 C-5.50902342 4.2047869 -3.24299151 2.38957269 0 0 Z " fill="#F4F4F4" transform="translate(372,58)"/>
<path d="M0 0 C0.33 0 0.66 0 1 0 C1.02691685 2.45840605 1.04679802 4.91651882 1.0625 7.375 C1.07087891 8.07367188 1.07925781 8.77234375 1.08789062 9.4921875 C1.11328125 14.7734375 1.11328125 14.7734375 0 17 C-0.66 17 -1.32 17 -2 17 C-2 15.35 -2 13.7 -2 12 C-1.34 12 -0.68 12 0 12 C0 8.04 0 4.08 0 0 Z " fill="#EEEEEE" transform="translate(299,115)"/>
<path d="M0 0 C0.99 0 1.98 0 3 0 C3 6.6 3 13.2 3 20 C2.67 20 2.34 20 2 20 C1.95101562 18.79601562 1.90203125 17.59203125 1.8515625 16.3515625 C1.77653657 14.77601802 1.70098867 13.20049834 1.625 11.625 C1.57859375 10.43390625 1.57859375 10.43390625 1.53125 9.21875 C1.48183579 4.63332625 1.48183579 4.63332625 -1 1 C-0.67 0.67 -0.34 0.34 0 0 Z " fill="#EDEDED" transform="translate(97,29)"/>
<path d="M0 0 C0.33 0 0.66 0 1 0 C0.979375 1.134375 0.95875 2.26875 0.9375 3.4375 C0.58422523 6.81575674 0.58422523 6.81575674 2 8 C2.04063832 9.66617115 2.042721 11.33388095 2 13 C0 12 0 12 -1.25 9.3125 C-2.12278242 5.45771096 -1.53446529 3.58041902 0 0 Z " fill="#F5F5F6" transform="translate(255,88)"/>
<path d="M0 0 C1.29283435 3.87850305 0.7509487 5.3458462 -1 9 C-4.125 10.875 -4.125 10.875 -7 12 C-6 9 -6 9 -4.0625 7.125 C-1.85208757 4.84760538 -0.99430634 2.98291902 0 0 Z " fill="#EBEBEB" transform="translate(334,95)"/>
<path d="M0 0 C1.814036 3.62807199 2.56942261 6.03868803 3 10 C2.67 10.66 2.34 11.32 2 12 C1.34 12 0.68 12 0 12 C0 8.04 0 4.08 0 0 Z " fill="#DEDEDE" transform="translate(124,120)"/>
<path d="M0 0 C0.33 0 0.66 0 1 0 C1 2.97 1 5.94 1 9 C0.01 9.495 0.01 9.495 -1 10 C-1.33 7.36 -1.66 4.72 -2 2 C-1.34 2 -0.68 2 0 2 C0 1.34 0 0.68 0 0 Z " fill="#E6E6E6" transform="translate(272,118)"/>
<path d="M0 0 C5.75 0.75 5.75 0.75 8 3 C7.67 3.99 7.34 4.98 7 6 C6.38125 5.2884375 6.38125 5.2884375 5.75 4.5625 C3.817815 2.83733482 2.51807725 2.43415125 0 2 C0 1.34 0 0.68 0 0 Z " fill="#F4F4F4" transform="translate(390,58)"/>
<path d="M0 0 C0.66 0 1.32 0 2 0 C3.4783226 2.95664519 3.06032783 5.74229737 3 9 C2.34 8.67 1.68 8.34 1 8 C0.40644386 5.35139573 0.25790731 2.70802678 0 0 Z " fill="#EFEFEF" transform="translate(399,67)"/>
<path d="M0 0 C2.97 0 5.94 0 9 0 C7.515 1.485 7.515 1.485 6 3 C2.8125 2.6875 2.8125 2.6875 0 2 C0 1.34 0 0.68 0 0 Z " fill="#F4F4F5" transform="translate(85,71)"/>
<path d="M0 0 C0.66 0 1.32 0 2 0 C2.33 2.31 2.66 4.62 3 7 C2.01 7.495 2.01 7.495 1 8 C0.67 5.36 0.34 2.72 0 0 Z " fill="#F1F1F1" transform="translate(41,37)"/>
</svg>
